["```\nFILE \"/home/alrac/winding-road-1.bin\" MOTOROLA\nTITLE \"Audio disc (26 June 10)\"\nTRACK 01 AUDIO\n      TITLE \"Guitar Summit\"\n      PERFORMER \"Winding Road\"\n      INDEX 01 00:00:00\nTRACK 02 AUDIO\n      TITLE \"Gone Away Again\"\n      PERFORMER \"Winding Road\"\n      INDEX 01 02:50:24\nTRACK 03 AUDIO\n      TITLE \"Tennessee Waltz\"\n      PERFORMER \"Winding Road\"\n      INDEX 01 06:45:63\nTRACK 04 AUDIO\n      TITLE \"Montana Two-Step\"\n      PERFORMER \"Winding Road\"\n      INDEX 01 14:30:72\n```"]